<?xml version="1.0" encoding="utf-8"?>
<!-- Generator: Adobe Illustrator 24.1.0, SVG Export Plug-In . SVG Version: 6.00 Build 0)  -->
<svg version="1.1" id="Layer_1" xmlns="http://www.w3.org/2000/svg" xmlns:xlink="http://www.w3.org/1999/xlink" x="0px" y="0px"
	 viewBox="0 0 1920.2 1075.6" style="enable-background:new 0 0 1920.2 1075.6;" xml:space="preserve">
<style type="text/css">
	.st0{fill:#115312;}
</style>
<path class="st0" d="M1917.5,66.7c-1.7,4-2.1,8.4-3.5,12.4c-3.6,11.1-5.7,22.6-8.4,33.9c-0.4,1.8-0.1,3.8-1.3,5.8
	c-3.2-1.5-3.9-4.1-4.1-7.1c-0.1-2.3-0.4-4.6-4.1-4.4c-3.1,5.2-6.4,10.5-9.6,15.8c-0.5,0.8-0.7,1.8-0.7,2.8c-0.2,7.5-1,14.9-2,22.4
	c-2.2,15.3,0.5,30.9-2.9,46.2c-1.4,6.1-0.8,12.4-1,18.7c-0.1,2.2,0,4.4-1.5,6.3c-2.3-1.1-2.7-4.5-5.7-3.9c-1.4,1.1-1.3,2.6-1.4,4
	c-0.8,8.9-3.7,17.5-3,26.6c0.1,0.8-0.2,1.6-0.6,2.3c-2.2,4-2,8.3-2.2,12.6c-0.1,2.2,0.1,4.5-0.6,6.7c-1.6,4.6-2.1,9.3-2.2,14.2
	c0,2.3-0.3,4.5-1.2,6.6c-1.2,3-1.7,6.2-1.7,9.4c0,8.6-3,16.9-3.7,25.5c-0.4,5.4-2.2,10.8-2.2,16.4c0,1.6-0.5,3.2-1.3,4.6
	c-0.7,1.3-1.4,2.6-1.3,4.1c0.6,6.7-2.2,12.9-3.2,19.3c-0.3,1.7-0.5,3.6-3.4,4c-2.9-2.7-5.2-6.1-5.3-10.4c-0.3-8.8-3.7-17.1-3.6-26
	c0-1.1-0.4-2.2-0.8-3.2c-1.1-2.6-1.3-5.3-1.5-8c-0.5-10.7-3.7-21-3.7-31.8c0-0.8-0.3-1.6-0.5-2.3c-1.4-3.7-1.6-7.5-1.7-11.3
	c0-3.2,0.1-6.4-1.3-9.4c-1.3-2.5-1.4-5.2-1.5-7.9c-0.5-9.5-3.2-18.8-4.4-28.2c-0.3-2.5-1.2-5-1.3-7.5c-0.2-6.3-3-12-3.5-18.2
	c0-0.2-0.5-0.3-1-0.6c-3,4.3-4.1,9.1-4.2,14.3c-0.1,3.2,0.5,6.5-0.9,9.5c-1.6,3.6-1.9,7.4-2,11.2c-0.1,2.4,0.2,4.8-0.6,7.1
	c-3,8.9-2.4,18.3-4.5,27.3c-1.1,4.6,0.1,9.8-1.3,14.3c-1.9,6.4-2.3,12.9-2.3,19.4c0,1.9,0,3.9-1,5.6c-1.2,2.3-1.6,4.8-1.8,7.4
	c-0.2,3.4-1.3,6.7-3.1,9.5c-1.8,2.7-2.7,6.6-7,7.6c-1.5-3.9-3-7.6-4.4-11.3c-1.4-3.6-3.3-6.9-7.2-8.4c-1.9-0.7-3.2-2.3-3.7-4.2
	c-1.2-4.1-3.9-7.6-4.5-12.1c-0.3-2.3-1.7-4.5-2.7-6.6c-0.7-1.6-1.8-2.6-3.8-1.7c-1.6,1.8-1.3,4.2-1.4,6.4c-0.2,2.5,0.3,5.2-0.5,7.6
	c-3.4,10.7-2.1,22.2-4.7,33.1c-1.6,6.7-0.7,13.9-2.5,20.9c-1.5,6.1-0.9,12.4-1,18.6c-0.1,5.3-2.3,14.2-4.2,16.9
	c-3.7-4.8,0.5-12.2-4.9-16.6c-4.4,2.8-3.8,8.5-8,11.3c-4.6-3.5-3.1-10.3-8.3-14c-2.6,3.8-6.7,6.4-9.4,10.2
	c-6,8.5-9.4,18.1-11.8,28.1c-0.6,2.5-0.7,5.4-3.5,6.8c-2.6-1.5-3.2-5.1-6.3-5.5c-1.8,1.3-1.5,3-1.7,4.5c-0.1,1.4,0,3-0.6,4.2
	c-2.2,4.5-2.2,9.3-2.3,14.1c0,1.9,0,3.9-0.8,5.7c-1.5,3.6-1.9,7.4-2.2,11.2c-0.4,4.6-1.2,9.2-1.7,13.8c-0.9,8-3.6,15.6-4.1,23.6
	c-0.2,3.9-2.7,7.2-4.3,11c-2.1-0.9-3.3-2.8-5.5-1.8c-1.8,1.5-1.7,3.8-1.7,6c-0.1,2.2,0.4,4.6-0.7,6.6c-2.2,4.3-2.2,8.9-2.3,13.6
	c0,1.7,0,3.6-0.5,5.2c-2.1,6.2-2.3,12.6-2.4,19c0,1.8,0.1,3.6-0.7,5.2c-1.8,4.1-1.9,8.4-2.1,12.7c-0.3,6.4-0.1,12.9-1.3,19.1
	c-1.3,6.8-1.9,13.6-1.8,20.5c0.1,5.6-0.4,11.2-1.4,16.7c-0.9,5-1.8,9.9-2.7,14.8c-2.1,0.1-2.7-2.3-5.2-1.7c-1.8,0.4-1.5,3.6-3.5,4.8
	c-1.3-2.1-1-4.2-1.1-6.2c-0.4-9.7-0.5-19.5-1.2-29.2c-0.5-6.4-2.6-12.4-2.4-18.9c0.4-12.4,0.5-24.9-2.4-37.2
	c-0.3-1.4-0.2-2.9-0.1-4.3c0.2-2.4,0.1-4.8-0.5-7.1c-2.9-12.5-3.2-25.3-5.1-38c-1.5-10.3-3.9-20.3-5.7-30.5
	c-0.8-4.7-3.4-9.1-3.5-13.9c-0.2-14.4-0.6-28.7-2.1-43.1c-0.9-8.1-0.5-16.3-0.9-24.4c-0.2-4.3,0-8.8-1.1-12.9
	c-1.7-6.3-2.1-12.6-1.7-19c0.6-10.4-2.4-20.1-4.4-30.1c-1.2-6.2-4.2-11.7-4.9-17.9c-0.2-2-0.6-4.2-3.9-4.7
	c-5.7,19.7-9.9,39.7-14.3,60.9c-3.4-10.7-8.9-18.7-15.1-26.7c-3.2,3.5-3.6,4.7-3.8,10.2c-0.1,2.4,0.4,4.9-0.8,7.1
	c-1.7,2.9-1.9,6-2.1,9.3c-0.1,1.7-0.2,3.6-0.8,5.2c-2.6,7.8-3.1,16-4.5,24c-2.2,12.9-3.9,25.9-5.2,38.9c-0.6,5.9-3.5,9.7-8.2,12.9
	c-2,0.1-4.2,0.2-6.4,0.3c-7.9,0.4-16.1,6.6-17.5,14.5c-1,5.9-3.4,11.3-4.2,17.1c-0.4,2.5-1.3,4.8-3.7,6.3c-5.1-9.1-4.3-19.9-9-28.7
	c-2.9,0.6-3.3,2.4-3.8,4.1c-0.5,1.5-0.7,3.1-1.4,4.6c-3.6,7.8-7,15.6-8.6,24.2c-0.7,3.9-2.3,7.6-2.4,11.7c0,1.1-0.6,2.1-1.1,3.1
	c-2,4.1-3.5,8.6-7.8,11.2c-0.7,0.4-1.2,1.5-1.6,2.3c-5.2,10.8-10.2,21.7-12.9,33.4c-0.7,2.8-1.8,5.4-4.9,6.5
	c-0.6-0.2-1.1-0.4-1.4-0.6c-0.4-0.3-0.8-0.6-1-1c-2.7-5.2-6.4-9.3-11.6-12.1c-4.1-2.3-6.7-6.8-11-8.6c-1.3,0.5-1.7,1.4-2,2.3
	c-1.8,6.6-3.8,13.1-5.3,19.8c-0.9,4.2-1.7,8.8-4.2,12.1c-4.3,5.8-7.2,12-8.8,18.9c-0.3,1.4-0.4,3.3-3.2,3.4
	c-2.3-3.3-4.1-7.2-7.1-10.3c-3.1-3.3-6.3-6.2-10-8c-1.3-1.9-1.1-3.7-1.1-5.4c-0.2-3-0.2-6.2-1.5-8.9c-1.5-3.3-1.9-6.7-2-10.2
	c-0.1-5.8-1.4-11.3-4-16.4c-5.2-0.6-7,0.7-7.2,5.3c-0.3,7-0.3,14.1-0.4,21.1c0,2.2,0.1,4.5-0.8,6.6c-1,2.2-1.2,4.6-1.3,7
	c-0.5,8.5-0.8,16.9-0.7,25.4c0.1,5-2.7,9.3-3.2,13.8c-2.3,0.3-3.8-1.1-6.1,0.3c-1.8,4.9-6.4,8.9-8.5,14.5
	c-2.1,5.6-2.6,11.6-3.6,17.5c-1.7-0.3-2-1.2-2.4-2.1c-1.3-3.3-2.3-6.6-2.6-10.2c-0.2-2.4-0.8-4.7-4.1-5.2c-1.9,2.5-2.1,5.5-2.9,8.2
	c-1.9,6.2-4.7,12.1-5.4,18.7c-0.4,3.7-1.7,7-4.9,10.6c-8.1-22.5-12.9-45.4-21.9-66.2c-2.2-1-3.6,0.3-5.3-0.7
	c-0.2-0.3-0.7-0.9-1.2-1.5c-6.6-8.5-6.1-19.3-9.1-29c1.4-13.4-3.7-26.2-3.2-39.5c0.1-2.4-0.2-4.8-0.7-7.2c-1-4.7-2.1-9.3-2-14.2
	c0-1.1-0.2-2.3-1.8-2.7c-2.2,0.8-2.7,2.9-3.2,4.8c-2.3,8.1-5.1,16.1-6.6,24.4c-1.6,8.7-5.7,15.9-10.3,23c-3.5,5.5-8,10.4-9.4,17
	c-0.2,1-0.6,2.2-2,2.2c-3.3-4-1.7-10.4-6.1-13.6c-2,0.4-2.6,1.6-3.2,2.7c-7.1,12.5-10.9,26.1-13.5,40.1c-0.6,3.4-1.1,6.9-3.7,9.8
	c-4.9,0.5-6.9,3.6-7.9,8.2c-0.8,4-2.3,8-3.5,11.9c-0.4,1.4-1,2.7-2.5,3.5c-1.9,0.6-4.1-1-6.1,0.5c-2.4,2.8-2.6,7.1-5.8,9.7
	c-3.8-2.1-3.4-7.8-8.1-9c-3.9,3.7-3.5,9.7-6.8,13c-3.8,1.3-5.7-1.9-8.8-2.4c-3.3,7.5-7.5,14.5-9.9,21.7c-2.1,0.5-3.2-1.1-4.4,0.1
	c-3.9,4.6-4.7,10.5-6.2,15.9c-1.6,6-3.9,11.8-4.6,18c-0.4,3.8-1.4,7.6-3.6,12c-1.6-4.5-1.1-8.6-2.9-11.9c-1.9-3.4,0.1-8-2.8-10.6
	c-3.3-0.7-3.3,3.1-6.4,2.8c-3.3-13.3-3.6-27.5-7.8-40.7c-4.5-0.7-5.6-0.1-6.6,3.1c-0.6,1.8-1,3.7-0.8,5.7c0.5,7.8-2.9,14.9-3.7,22.5
	c0,0.1-0.3,0.1-1.3,0.5c-0.4-8-6.1-11-12.3-13.2c-3.2,0.2-4,3.8-7,3.5c-3.8-2.5-5.7-5.1-7.6-10.6c-2.8-8.4-5.7-16.6-10.8-23.9
	c-2.4-3.6-3.9-7.7-4-12.2c0-1.6-0.3-3.2-0.7-4.7c-3-11.4-4.5-23.1-7.7-34.5c-1.4-4.9-3-9.7-3.9-14.8c-0.5-2.5-1.3-5.5-3.5-7.4
	c-2.4,0.6-2.8,2.4-3.4,4c-1.3,4.1-2.6,8.2-3.8,12.3c-0.6,2-1.2,4-3.6,4.5c-1.9,0-3-2-5.2-1.7c-1.6-0.4-2.3,2.5-5.2,1.5
	c0.6-6.3-2.6-12.4-3.1-18.7c-0.6-6.8-2.6-13-4.7-19.1c-2.8-1.9-5.6-2.1-8.5-1.9c-3.4,0.2-4.1,3.6-6.1,5.7c-2.5-3-4-6.1-4.2-9.7
	c-0.3-4.3-2.9-7.6-4.1-11.7c-4.5,1.8-4.3,7.5-8.9,8.6c-2.9-2.3-3.4-8-9.2-7.3c-1.8,5.6-3.7,11.1-3.8,17.1c-0.1,2.1,0.2,4.2-0.6,6.2
	c-1.8,4.2-2.2,8.6-2.5,13.1c-0.1,1.7-0.1,3.6-2,4.4c-1.8,0.1-2.7-2-5.1-1.4c-2.4,3.3-3.8,7.5-4.1,12c-0.2,3.2-0.8,6.3-1.8,9.4
	c-2.3,7.3-2.4,15-5.1,22.3c-1,2.8-1.6,5.8-3.6,8.7c1.4-5.9-2-20.5-5.7-24.9c-5.5-0.6-12.2,2.6-13.1,7.3c-0.9,4.4-3.1,8.3-3.8,12.8
	c-0.5,3.4-1.9,6.8-5.6,7.8c-4.2,1.1-5.1,4.2-5.9,7.8c-1.7,8.9-3.7,17.8-5.6,26.7c-0.4,1.7-0.7,3.6-3.8,3.5c-1.9-8.7-5.8-16.8-8.4-26
	c-0.9,1-1.3,1.3-1.4,1.7c-1.2,5.3-3.8,10.2-3.3,15.8c0.2,1.9-0.4,3.8-1.3,5.5c-1.1,2-1.3,4.3-1.4,6.5c-0.2,7-3.4,13.3-4.4,20.1
	c-0.1,0.6-0.7,1.1-1.4,1.2c-1.8-0.3-2.2-1.8-2.2-3.2c0.2-7-3.3-13.3-3.7-20.2c-0.2-2.7-1.2-5.3-4.2-6c-2.1,0.9-2.1,2.6-2.2,4.2
	c-0.1,1.3,0,2.6-0.4,3.8c-2.9,8.7-4.2,17.7-5.8,26.6c-0.6,3.3-1.6,6.5-2.5,9.7c-0.5,1.8-1.4,3.5-3.4,4.5c-3.3-3.3-2.4-9.3-6.7-10.9
	c-2.7-0.1-3.3,2-5.3,2.2c-1.6-1.9-1.3-4.2-1.3-6.3c0-7.4-0.2-14.7-0.9-22c-0.5-5.7-2.6-11.1-2.2-17c1-12.4-1.3-24.6-3.3-36.7
	c-1.4-8.5-5.2-16.7-9.4-24.5c-0.5-1-1.5-1.7-3.5-1.2c-2.2,6.5-1,13.8-2.9,20.7c-1.9,6.8-1.7,14.1-2.5,21.4
	c-4.1-5.1-4.2-11.3-5.8-17.7c-5.9,4.1-4.5,10.3-6.5,15c-2.1,4.9-3.1,10.4-4.7,15.5c-1.6,5-2.1,10.3-3.8,15.4
	c-2.4-4.1-4.1-8-3.9-12.7c0.2-4.8-0.4-9.6-1.5-14.3c-2-8.4-3-17.1-3.9-25.5c-0.9-9.2-4.2-18.1-3.7-27.5c0.1-2-0.5-4.2-2.9-4.6
	c-1.2,0.2-1.8,0.8-2,1.6c-2.4,7.4-4.5,15-6,22.7c-1.3,6.9-3.1,13.7-7,19.7c-2.4,3.8-4.7,7.6-6.4,11.8c-3.7,8.7-7.8,17.2-7.2,27.1
	c0.1,1.2-0.1,2.7-0.7,3.7c-1.9,3.7-2.2,7.7-2.7,11.6c-0.1,0.9,0,2-1.4,2.6c-2.2-0.9-3.2-4.1-6-4.2c-2.7-0.1-4.7-2-8-2.5
	c-4.1,10.7-8.1,21.4-12.4,32.5c-5-4.1-2.3-11.8-7.8-15.5c-2.6,2-3.7,4.8-4.9,7.5c-1.3,2.7-2.4,5.5-3.7,8.4
	c-6.1-2.7-10.3-8.1-16.7-9.8c-2.1,1.1-4.5,2.3-4.9,4.8c-0.8,4.5-3.2,8.3-4.3,12.7c-1.6,6.5-3.1,13-6.8,18.9
	c-0.9-0.1-1.7-0.2-2.5-0.3c-0.8-0.1-1.6-0.1-2.5,0.4c-1.5,1.2-2.3,3.2-3.8,4.6c-3,2.7-5.6,5.7-7.3,9.4c-4.4,9.6-8.8,19.2-11.4,29.4
	c-1.2,4.7-3.9,8.2-7.1,11.8c-6.6-2.5-9.3-9.1-13.9-12.8c-3.3,0-3.9,2.1-4.8,4c-1.9,4-2.9,8.5-5.4,12.3c-3.3,5-8.4,5.4-12.4,1
	c-5-5.4-8.3-11.9-12.8-17.7c-0.6-0.7-1-1.7-1.1-2.6c-0.5-5.3-3.5-9.8-3.9-15.2c-0.2-2.9-1.7-5.8-2.7-8.7c-0.5-1.3-1-2.8-3.7-2.7
	c-3.3,6.9-8.4,13.2-11.1,21c-2.7,7.7-3.4,16-7.3,23.4c-1.3-0.8-1.8-1.6-1.8-2.5c-0.6-9.6-5.1-18.4-4.9-28.1
	c0.1-4.2-1.1-8.1-4.2-11.8c-4.2,6.8-4.5,14.9-8.9,20.8c-2.1,0.1-2.8-1-3.3-2.2c-1.4-3.2-3.1-6.3-4-9.7c-1.1-4-2-8.3-5.3-11.3
	c-2.8,0-5,1.3-7.4,1.4c-1.5,0-2.8,1-3.2,2.5c-0.9,3.6-3.2,6.8-3.6,10.3c-0.6,4.9-3.4,8.9-4.5,13.6c-0.5,2.1-1.7,4.1-3.4,5.5
	c-1.9,1-4,0-6.3,1.2c-0.9,1.7-3.1,2.8-5.3,3.7c-1.1,4-3.3,7.4-4.8,11.1c-1.8,4.3-4.2,8.6-4.5,13c-0.6,6.7-2.4,13.2-3.4,19.8
	c-1.1,7.3-2.2,14.5-3.2,21.8c-0.6,4.5-3,8.4-5,12.4c-0.8,1.7-2.4,3-4.8,3.1c-3-1.3-6.3-2.6-8.9-3.2c-2.6-0.1-3.5,1.7-5.4,1.8
	c-3.5-2.5-4.1-6.5-4.9-10.4c-0.7-3.6-1.7-7.1-4-10.1c-9.1,6-15.1,14.9-23,21.7c-2.2,0.6-4.5,0.4-6.7,0.2c-3.2-0.2-5.4,1-7,3.9
	c-1.6,2.9-3.6,5.7-5.4,8.5c-1,1.6-2.2,2.8-4.6,1.9c-3.2-3.9-2.4-10.3-7.3-14.1c-4.4,4.5-5.3,11-10.2,14.7c-5-0.8-9.8-0.8-14.6,1.3
	c-1.9,6.2-3.8,12.4-5.6,18.3c-4.2-0.1-4.2-3.9-6.9-5.4c-5.2-0.2-10.7-0.6-16.2,0.2c-5.6,7.5-4.6,17.2-9,24.9
	c-2.3-0.6-2.3-3.2-4.8-3.7c-3.9,2.8-9.8,0.7-13.5,4.5c-3.6,0.3-5.3-1.5-6.8-4c-1.1-2-5.5-16.5-5.8-19.5c-0.4-5.7-1.9-7-7.8-7.4
	c-0.5,0-1-0.1-0.6-0.1c-2.3-0.3-2.8-2.2-4.8-2.1c-1.8,2.3-4.7,3.9-5.4,7.3c-1.1,5.5-4.6,8.9-10.1,11.1c-2-2.1-4.8-2.9-7.6-2.8
	c-2.3-2.1-2.7-5.6-6.3-6.2c-5.9,6-7.5,15-14,21c-3.2-2.5-4.1-6.5-7-8.2c-2.9-1.3-5.1,0.3-6.9,0.6c-7.3-1.1-11.1-6.7-16.3-10
	c-6.1-1.4-10.3,0-13.6,5.9c-2.7,4.9-6.3,9.2-7.3,14.9c-0.1,0.7-0.6,1.5-1.1,2.1c-2.9,4.1-4.6,8.8-5.6,13.5c-2,9.9-7.2,18-12.5,26.2
	c-0.6,0.9-1.3,1.9-2.4,2.3c-3.9,1.4-5.7,4.9-7.5,8.2c-1.3,2.3-1.8,5.1-3.6,7.1c-2.3-0.1-2.7-1.9-3.3-3.3c-2.9-6.2-5.1-12.7-7.1-19.2
	c-2-6.4-1.8-6.4-8.4-6.9c-0.6,0-1.2-0.2-1.8-0.3c-3-3.8-5.1-8.1-8.8-11.5c-7,5.3-5.4,15.2-11.6,20.7c-4.7,1-9.6-0.5-13.3,0.7
	c-2.6,1.4-2.2,4.2-4.5,4.6c-1.8-0.6-2.3-2.3-2.8-3.7c-1.5-4.4-3.1-8.8-3.9-13.3c-1-5.8-3.4-11.1-3.8-17.1c-0.2-3.7-2.3-7.5-2.7-11.5
	c-0.1-0.8-0.6-1.5-2.1-2.4c-4.3,3-6,8.4-9.1,12.4c-3.3,0.2-3.1-3.3-5.5-4.2c-1.1-0.3-2.5,0-4.2,0.9c-0.5,4.2-3,7.6-5.9,10.6
	c-2.9,0.7-5.7-0.8-8.4,0.8c-3.2,3-4.9,7.7-8.9,10.3c-0.7,0.4-1,1.6-1.2,2.5c-0.8,3.7-3,6.6-5.3,9.7c-3.4,0.1-5.6,2.5-7.9,4.6
	c-8.3,0.4-9.5,8.4-14,12.6c-2.3-0.7-2.3-2.4-2.8-3.9c-1.9-5.2-1.5-10.7-2.6-16.1c-1.4-7-2.4-14.1-3.7-21.2c-0.5-2.6-1.3-5.2-3.9-7
	c-3.1,3.6-4.5,8-6.7,11.8c-2.9,4.9-5,10.3-6.1,15.9c-0.4,2.2-0.8,4.6-4.1,4c0,9.9,0,19.8,0,29.8c0.4-2.2,3.5-0.7,4.1-3.1
	c0.6-7,3.2-13.4,8.1-18.3c2.5-0.2,3.9,0.4,5,2.2c0.8,7.4,2,14.9,5.8,22c3.8,0.2,7.4,0.7,11.3-0.4c3.7-6.1,6.5-13,12.2-17.9
	c1.6-0.7,3.5,0,4.9-1.2c8.6-5.4,11.6-15.3,17.9-22.5c3.2-1,6.3,0.2,9.1-0.6c2.8-1.2,4-4.3,6.8-5.4c2.6,1.6,5,3.5,7.7,4.1
	c3.1-0.8,3.1-4.1,5.3-5.6c4.8,15,9.3,29.7,15.5,44.7c6.4-4.8,6-13.1,11.4-18.2c4.4-0.8,9-0.6,13.4,2.8c2.7-5.2,3.8-10.4,7.2-14.4
	c4.9,0.6,7.7,4.7,11.3,6.4c2.5,4.2,3.5,8.5,4.9,12.7c3,8.7,7.4,16.9,12.5,24.9c1.3,0.3,2.6,0.3,3.7-1.2c-0.4-3.2,0.5-6.2,2.9-8.5
	c-0.2-4.5,0.6-8.9,3.7-11.7c3.8-3.6,7.1-7.7,10.7-11.4c2.5-2.6,4.6-5.5,5.6-8.8c0.9-3.2,2.3-5.9,4.5-7.9c0.5-2,0.6-4,1.5-5.3
	c4.2-6,4.6-13.5,7.9-19.8c2.2-4.3,4.6-8.7,7.5-12.4c5.4-1.2,9,1.7,12.4,4.5c2.1,1.8,4.2,2.7,6.9,2.7c2.7,0,5.4-0.4,8.1,0.4
	c2.4,2.7,3.7,6.3,7,9.3c8.8-3.5,11-12.9,16.4-19.2c3,0.6,3,0.6,4.1,2c5.1,6.8,16.4,6.8,21.4,0c1.7-2.3,3.2-4.7,3.8-7.7
	c0.3-1.8,0.6-3.9,2.6-4.8c1.9-0.1,3.5,0.9,3.6,2.5c0.3,5,3.5,9.2,3.7,14.3c0.2,5.7,3.1,10.4,7.1,14.2c2.4,2.3,5.3,4.1,9.3,3.1
	c2.2-2.4,5.3-3.6,8.7-4.4c3.6,2.9,8.4,4.1,11.2,8.7c2.4-4.1,4.7-7.5,5.2-11.8c0.8-5.8,3.5-11.2,3.9-17.2c0.1-1.4,0.8-2.7,2.6-3.9
	c2.5-0.6,5.5-0.2,8.1,0.3c5,4.5,4.6,11.5,8.9,16.2c1.9-1.1,3.8-2.5,3.8-4.2c0.2-4.8,2.9-8.7,3.6-13.3c0.7-4.5,2.4-8.8,4.1-12.9
	c5-0.8,9.7,0.5,13.8-0.5c2.1-1.4,2-3.8,4.1-4.9c3.1-0.6,3.7,1.7,4.3,4.2c0.7,2.9,1.4,5.7,5.7,5.6c6-7,10.4-15.4,15.3-22.6
	c2.4-0.9,3.3,1.3,5,1.2c1.2-0.6,2.5-1.1,3.8-1.7c1.3,0.3,2.5,0.6,3.7,0.9c2.7-1.2,5.1-2.9,7.5-4.7c1-2.9,2.9-5.3,5.4-8
	c4.5,8.4,4,18.4,10.3,25.8c4.2-3,5.2-8.1,8.8-10.8c2.9,0.3,5.3,1.3,7.6,2.5c2.6,1.4,5.3,1,8,0.8c4-2.6,4.8-7.2,6.4-11
	c5.6-13.2,6.6-27.6,8.9-41.6c1.4-8.8,1.9-17.7,4.8-26.2c1-2.8,2.4-5.1,4.8-6.2c2.5-1.1,4.1-2.9,5.6-5c0.8-0.2,1.6-0.3,2.3-0.5
	c6.6-1.7,7.5-2.7,7.9-9.4c0.1-1.8,0.2-3.6,1.2-5.1c1.7-2.5,2.2-5.2,2.8-8.1c0.5-2.7,1-5.7,4.9-7.4c5,9.2,7.2,20.7,17.5,25.8
	c2.9-1.4,2.1-4.9,5.3-6.1c4.4,10.2,2.7,21.8,8,32.3c4.1-3.6,7.8-7,10.9-11c0.9-1.2,1.6-2.4,2-3.8c2-8.2,3.9-16.4,5.9-24.5
	c0.7-3,1.3-6.1,4.2-7.9c1.4,1.1,1.4,2.4,1.6,3.7c1.5,8.5,5.1,16,10.1,23c0.9,1.3,2.8,2,3.3,3.4c1.7,4.9,5.7,7.9,8.6,11.7
	c9.7,2,14.3,1.5,19.7-8.7c1.1-2.1,1.4-4.6,3.6-6.5c5.7,2.3,8.7,9.4,15.8,9.9c5.4-6,11.3-11.2,12.6-19.9c0.5-3.7,2.1-7.6,3.5-11.3
	c2-5.1,4.3-10,6.3-15c2.1-5.4,5.4-8.9,11.6-8.7c3.4,0.1,5.4-1.6,6.3-4.7c1.2-3.8,2.2-7.6,3-11.6c1.2-6.1,2.6-12.2,8.4-16.5
	c7-1.5,8.9,6.6,14.2,8.4c4.7-1.5,3.3-7.7,8-9.6c2.4,6.3,3.2,13,6.2,18.7c2.9-0.5,3.3-2.2,3.6-4c0.3-1.6,0.5-3.1,1.2-4.6
	c4.5-9.7,8.1-19.7,10.6-30.2c0.4-1.7,0.8-3.5,3.3-4.7c7.2,1.3,7.8,9.6,12.5,13.8c3.1-3,4.2-5.4,4.4-10.2c0.4-8.5,3.7-16.5,3.5-25.1
	c0-0.9,0.5-1.9,0.8-2.7c1-2.4,1.4-4.9,1.5-7.5c0.1-1.8,0.2-3.5,1-5.1c3.5-7,5.7-14.6,10.3-21.1c3-4.2,4.8-9,5.9-14
	c0.3-1.1,0.3-2.7,2.2-2.6c0.8,0.8,1.1,1.9,1.1,3c0,6.2-0.1,12.4,2.5,18.3c0.5,1.2,0.2,2.8,0.3,4.3c0.2,3.2-0.1,6.5,0.5,9.6
	c1.2,6.3,2.8,12.4,2.6,18.9c-0.3,7.4,3.4,14.3,2.9,21.8c-0.2,3.3,0.3,6.7,1.2,10c0.8,2.7,2.1,4.7,5.3,4c3.3-4.2,4.6-8.1,4.8-14.8
	c0.1-2.7-0.4-5.6,0.8-8.1c1.6-3.3,1.9-6.7,2.1-10.2c0.3-5.2,3.1-15.5,4.8-18.2c3.7,3.3,4.1,7.6,4.2,12.2c0.1,5.3,2,6.5,7.6,5
	c1-6.5,2-13.3,3.6-20.1c0.9-4,0.4-8.3,0.8-12.4c0.4-4,1.2-8,2.6-11.7c1.9,0.6,1.9,1.6,1.8,2.5c-0.4,5.8,0.6,11.5,0.9,17.2
	c0.8,13.2,3.5,26.3,3.1,39.6c0,0.2,0,0.3,0.1,0.5c1.5,9.4,3.1,18.8,2.5,28.5c-0.1,1.4,0,2.9,0.1,4.3c0.1,1.6,0.3,3.2,2.2,4.1
	c3.4-0.7,4.2-5.1,7.6-5.7c1.1,0.5,1.4,1.4,1.8,2.3c2,3.9,3.3,8,4.5,12.1c0.6,2.1,1.5,3.6,4.6,2.5c5.3-11.2,10.9-22.7,12.4-35.8
	c6.3,5,2.6,13.6,7.9,19.2c2.8-2.4,3.6-5.4,4.9-8c4.6-9.1,9.5-18.1,9-28.9c-0.1-2.1,0.2-4.2,2.5-5.3c3.1,0.8,3.1,3.3,3.4,5.7
	c0.3,2.2,0.3,4.7,3.8,4.6c1.6-2.6,4.4-4.3,6.6-6.5c5.1-4.9,5-11.8,6.6-18c1.6-6.2,3.4-12.2,5.1-18.3c4.6-0.5,6.6-2.8,7.9-6.9
	c1.8-6.2,4.9-12,6.2-18.4c0.1-0.3,0.7-0.5,1-0.8c2.2,0.7,2.3,2.5,2.7,4.2c1.1,4.9,1.4,10.2,5.5,14c0.9,0.9,0.9,2.4,1,3.6
	c0.1,1.4,0,2.9,1.2,4.1c1.3,0.9,2.6,0.9,4.2-0.3c1-2.8,2.7-5.4,4.9-7.8c2.2-2.5,3-5.6,3.3-8.9c0.1-1.6,0.2-3.2,0.5-4.8
	c1.2-8.5,3.5-16.9,4.4-25.5c0.2-2.2,0.6-4.5,2.5-5.8c1.9-0.8,3.6,0.7,6.3-0.6c2.8-4.5,1.3-10.9,3.5-16.3c2.1-5.3,0.6-11.7,3.7-16.8
	c2.8,0.2,4.6,3.1,7.4,1.1c1.5-0.7,1.1-3.5,3.8-4c3.6,8.3,4.2,17.5,8.2,26.2c5.3-4.5,5.7-11.9,11.2-16.4c2.1,4.2,4.6,7.7,4.4,11.6
	c-0.6,9.2,3.9,17.4,4,26.4c0,3.3,1.8,4,5.7,3.8c1.8-0.9,2.1-3.3,3.9-4c4.6-2,5.6,4.5,9.7,4c4.5-1.3,2.5-7.8,7-9.4
	c0.4,0.4,0.9,0.7,1,1.1c1,6.1,5,11.5,4.2,18c-0.2,1.3,0.5,2.5,1.1,3.6c2.7,6,1.3,13,4.3,18.9c0.1,0.1,0,0.3,0,0.5
	c-1.2,8.4,3.5,14.7,7.6,21c1.3,2,2.6,3.9,3.6,6.1c2,4.5,2.9,9.7,5.5,13.7c2.6,4.1,5.7,8,8.2,12c2.2,0.5,4,1,5.8,0.4
	c1.5-1,1.7-2.9,3.8-3.7c1.5-0.2,3.3,0.1,5,2.2c0.7,4.1,2.8,8.4,3.6,12.7c1.1,5.5,3.2,10.7,3.8,16.3c0.3,3,1.2,5.8,4.3,7.6
	c2.5-4.2,0.1-9,2.7-12.8c2.6-3.8-0.1-8.9,3-12.8c5.2,1.6,2.9,7.3,5.3,9.5c2.4,1.7,5-0.1,6.9,1.8c1.2,1.8,0.7,4,1.1,6
	c4.6,5.8,1.2,12.8,3.3,19.8c4.1,3.8,0.7,10.1,3,15.3c2.5,0.5,4.9,1,7.3-0.8c1.2-3.8-0.1-7.9,1.2-11.4c2.2-6.2,3.2-12.5,4.3-18.8
	c1.5-8.9,1.8-18.1,4.8-26.8c0.8-2.3,1.1-4.6,3.3-5.8c2.8,0.9,2.9,4.5,6.2,5.1c5.3-9.6,5.9-20.6,9.1-30.6c2.4,0,3.2,2.2,5.1,1.7
	c4.2-2.3,3.7-8.5,8.5-10.5c2.9,1.9,2.7,6.1,6.6,7.5c5-3.2,5-9.5,8.1-13.8c3-1.2,6.2,0.4,8.9-1.1c4.4-6.9,4.8-15.3,9-22.2
	c2.8-0.8,6.1-0.4,7.3-3.9c2.9-8.6,4.5-17.5,6.1-26.4c0.7-4.1,2-7.8,4.6-11.3c3.6,6.1,4.2,13.2,7.6,19.7c3.2-2.8,4.5-6.1,5.1-9.5
	c1.3-7.8,4.5-15,6.4-22.6c0.4-1.5,1.5-2.4,2.4-3.5c4-4.6,7.8-9.2,9.9-15.1c0.9-2.6,2.1-5.5,5.5-8.2c1.2,8.2,3.9,15.5,4.1,22.6
	c0.3,10,1.8,19.3,5.4,28.5c1.5,3.8,2.6,7.9,5.4,10.4c2.1,0.9,3.8,0.1,5.4,1c1.7,1.6,2.2,4,3,6.2c3.4,10.5,6.8,20.9,10.2,31.4
	c0.8,2.6,2.9,4.6,2.9,7.5c0,3.1,1.3,5.9,1.7,8.9c1,6.1,4.1,11.7,4.4,18c0.1,3.2,1,6.5,4.5,9c6-9.1,8.3-19.7,14.6-28.8
	c5.4,6.1,2.8,14.8,8.3,20.6c1.8-2.5,0.9-5.2,1.9-7.3c3.3-6.6,2.8-14,4.3-20.9c1.4-6.7,3.2-13.3,4.4-20c0.4-2.3,1.3-4.6,4-5.7
	c3.3,3.4,4.9,8.1,9.4,12c-0.2-5.8,2.4-10,2.7-14.8c0.5-8.8,0.9-17.6,0.7-26.4c0-1.9-0.1-3.9,0.8-5.6c1.3-2.4,1.3-4.9,1.4-7.4
	c0.1-3.7,0.3-7.4,1.9-12c1.5,3.9,1.7,7.2,3.6,10.2c2.5,0.9,4.7,3,6.6,4.9c3.1,3.3,6.6,6.3,8.2,10.9c2.1,6.2,4.6,12.2,7,18.3
	c0.6,1.5,1.2,3,4.2,3.1c1.4-4.4,3.6-8.9,4.7-13.8c1.6-6.9,2.5-14.1,5.6-20.7c3.6-7.6,7.6-15,9.2-23.5c0.6-3,2.3-5.9,2.5-9.2
	c0.1-0.8,0.5-1.5,1.2-1.4c9.9,3.3,14.8,11.5,19.2,19.7c2.5-0.3,2.9-2.5,4.6-2.7c4.8-0.5,6.6-4.4,8-8c2.5-6.5,4.4-13.3,6.6-19.9
	c2.6-7.7,5.5-15.3,12.2-20.6c0.9-0.7,1.5-1.6,1.9-2.7c2.6-7.3,4.9-14.8,6.5-22.4c0.9-4.4,2.7-8.4,4.4-13c6.2,5.9,2.9,15.4,10,20.6
	c2.4-2.5,4.6-5.1,6.9-7.3c5.6-5.3,5.6-12.8,7.2-19.4c1.1-4.4,2.6-8.5,4.6-12.4c1.4-2.8,3.7-4.3,6.9-4.3c3.8,0,7.3-1.1,9.7-3.7
	c1.8-0.7,3.5-0.3,4.6-1c1.5-1.5,2.6-3,4.1-3.8c3.3-1.9,4.8-4.8,4.8-8.3c0-7.6,1.6-14.9,3.3-22.2c1.1-4.6,0-9.4,1.2-13.8
	c1.6-5.8,1.9-11.6,1.8-17.6c0-2,0.3-3.8,1.3-5.5c1.8-3.1,2.3-6.6,2.4-10.1c0.1-4,1.2-7.7,4.4-12c3.7,11.6,7,22.2,10.5,33
	c3.8-1.4,4.1-4.2,4.4-6.8c0.3-3,0-6.1,1.3-9c1.2-2.5,1.7-5.2,1.7-7.9c0-2.9,0.6-5.7,2.1-8.3c0.7-1.2,1.4-2.7,1.4-4
	c-0.2-6.9,4.4-12.6,4.5-19.4c0-0.1,0.5-0.2,0.8-0.3c1.5,0.6,1.3,2,1.6,3.2c1.4,6.3,1.2,12.8,2.6,18.9c1.2,5.6,1.7,11,1.5,16.6
	c-0.2,7-0.2,14.1-0.2,21.1c0,1.7,0,3.6,0.6,5.2c2.6,7.2,2.4,14.8,2.6,22.3c0.2,8.3-0.5,16.8,1.3,24.9c1.9,8.6,1.7,17.3,4.2,25.9
	c2,6.8,3,14,4.4,21c2.3,11.2,2,22.6,3.9,33.7c1,5.6,0.4,11.5,2.4,17c0.9,2.5,1.3,4.9,1.3,7.5c0.1,8.3,0.4,16.6,0.6,24.9
	c0,1.8,0.2,3.5,0.9,5.2c1.2,2.7,1.4,5.5,1.4,8.4c0,9.4-0.3,18.9,0.6,28.3c1.3,14.5,2.9,28.9,2.7,43.5c0,2.4,0.3,4.8,0.8,7.1
	c0.7,3.8,1.8,4.4,5.9,3.9c5.4-5.1,2.8-13.6,7.8-18.7c3.3,0.5,3.8,4.2,6.7,4c0.9-0.3,1.4-0.8,1.4-1.4c0-6.3,2.7-12.1,3-18.4
	c0.3-8.3,0.8-16.6,1.4-24.9c0.5-6.5,1.7-13,1.9-19.5c0.2-6.1,0.4-12.2,1.3-18.1c0.7-4.6,1.3-9.1,1.4-13.8c0.1-4.6-0.4-9.3,1.1-13.8
	c1.5-4.5,1.8-9.1,1.8-13.7c0-8.3,3.5-16.1,4-24.4c0-0.2,0.5-0.4,0.7-0.5c1.8-0.4,2.5,2.1,4.3,1.5c1-0.3,1.9-1,2-1.9
	c0.5-5.2,3.1-9.7,4.1-14.7c1.6-7.9,3.1-15.9,4.5-23.8c1.8-10,4.3-20,3.8-30.3c-0.1-2.8,0.2-5.7,2.6-7.6c2.6,0,2.7,3,4.7,3.3
	c3-1.9,3.6-2.7,4-6.4c0.2-2.1-0.1-4.3,0.8-6.1c2.8-5.5,3.2-11.6,4.9-17.4c1.8-6.3,5.4-11.5,8.4-17.1c0.4-0.8,1.2-1.6,2.9-1.6
	c4,4.3,4.1,11.3,8,15.4c3.1,0.8,3.6-2.4,6.4-2.6c0.3,6.2,2.6,11.9,3,17.9c0.3,4.5,0.6,8.9,1.3,13.3c0.6,3.4,1.6,6.8,3.7,9.5
	c3.5,0.8,5.1-0.8,5.8-3.7c0.4-1.9,0.6-3.8,0.8-5.7c1-10,1.2-20.1,2.7-30.1c1.8-11.3,1.4-22.9,2.6-34.3c1.4-13.8,4.1-27.4,4.3-41.4
	c0-3.5,0.9-7.1,3.8-10.2c2.8,3.3,5.1,6.6,9.4,7.3c3.3,7.8,4,16.3,8.2,23.1c2.1,0.8,3.3,0.2,4.1-1.2c0.7-1.1,1.3-2.2,2.2-3.1
	c5.7-5.5,9.9-12,13.6-19c1.3-2.5,1.7-5.1,1.9-7.8c0.4-6.6-0.7-13.5,2.6-19.7c0.2-0.4,0.2-0.9,0.2-1.4c0.1-7.2,1.7-14.2,2.4-21.3
	c0.9-9.1,2.7-18,4.2-27c0.3-1.9,0.4-3.8,0.7-5.7c0.4,0,0.8,0,1.2,0c-0.4,5.3,2.5,9.9,2.7,14.9c0.4,11.2,4.1,22,4,33.2
	c0,3,0.7,6,1.6,9c0.7,2.5,1,5,1,7.6c0,9.6,3.8,18.7,3.9,28.4c0,0.3,0.1,0.6,0.3,0.9c1.5,3.6,1.7,7.4,1.9,11.3
	c0.7,11.4,4.1,21.9,11.1,31c0.5,0.7,1.1,1.2,2.6,1.1c6.8-6.5,12.7-13.7,12.3-24.3c-0.1-2.1-0.2-4.3,0.8-6.1c1.6-3.1,1.9-6.4,2.1-9.8
	c0.1-2.4,0.4-4.8,1.2-7.1c1.2-3.7,1.8-7.5,1.8-11.3c0-2.1,0.1-4.2,0.9-6.1c1.5-4,1.5-8.1,2-12.2c1-7.9,3.4-15.5,3.4-23.6
	c0-0.3,0.2-0.6,0.3-0.9c1.8-3.7,2-7.7,2.1-11.7c0-1.9-0.3-4,0.3-5.7c2.3-6,2.4-12.2,2.7-18.4c0.1-2.4,0.2-5.2,2.8-6.7
	c2.9,1.3,3.5,5.3,7,5.4c1.3-1.1,1.3-2.6,1.4-4c0.5-9.4,0.2-18.7,2-28.1c2.7-14.6-0.5-29.6,3-44.3c1.4-5.8,0.9-12.1,0.9-18.2
	c-0.1-5.9,0.6-11.8,1.1-17.7c0.2-2.7,0.9-5.5,2.7-8.1c4.8,7.9,5.1,16.9,9.1,24.9c2.6-3.6,4.4-8.8,4.6-12.9c0.1-2.1,0-4.2,0.7-6.2
	c2.6-8.6,3.6-17.5,5.2-26.2c1.1-6,3.1-11.6,5.6-17.1c0-9.3,0-18.6,0-27.8C1918.6,64,1918.1,65.2,1917.5,66.7z"/>
</svg>
