<?xml version="1.0" encoding="utf-8"?>
<!-- Generator: Adobe Illustrator 24.1.0, SVG Export Plug-In . SVG Version: 6.00 Build 0)  -->
<svg version="1.1" id="Layer_1" xmlns="http://www.w3.org/2000/svg" xmlns:xlink="http://www.w3.org/1999/xlink" x="0px" y="0px"
	 viewBox="0 0 3348 1049.1" style="enable-background:new 0 0 3348 1049.1;" xml:space="preserve">
<style type="text/css">
	.st0{fill:#FFFFFF;}
	.st1{fill:none;}
	.st2{fill:#F2F2F2;}
	.st3{font-family:'Staatliches-Regular';}
	.st4{font-size:600px;}
</style>
<g>
	<path class="st0" d="M655,833.2c-205.8,0-411.5,0-617.3,0c0-205.8,0-411.5,0-617.3c205.8,0,411.5,0,617.3,0
		C655,421.7,655,627.4,655,833.2z M344.8,786.2c15.9,0,31.9-1.4,47.6,0.3c41.4,4.5,78.9-3.9,111.7-30c8.9-7.1,18.2-14.7,24-24.2
		c22.5-37,41.5-76.4,65.9-112.1c26.1-38.1,38.5-77.9,32.3-123.4c-1.2-8.8-2.6-18.3-6.8-25.8c-22.7-40.5-48.3-79.5-69-120.9
		c-18.9-37.7-44.5-66.3-83.6-82c-9.6-3.9-20-7.8-30.1-7.9c-46.5-0.8-93.2,1.8-139.6-1c-42.1-2.6-79.8,5.1-113,31.1
		c-8.1,6.4-16.8,13.3-22,22c-22.4,37.1-41.7,76.2-65.8,112.1C70.4,462.8,56.7,503,63.4,549.1c1.3,8.8,2.6,18.3,6.8,25.8
		c30.4,53.7,61.2,107.2,92.7,160.3c4.6,7.9,12.5,14.2,19.9,19.9c34.2,26.5,72.9,36.3,115.9,31.3
		C313.9,784.8,329.5,786.2,344.8,786.2z"/>
	<path class="st0" d="M344.8,786.2c-15.3,0-30.9-1.5-46,0.3c-43.1,5-81.7-4.8-115.9-31.3c-7.4-5.7-15.3-12.1-19.9-19.9
		c-31.4-53.1-62.3-106.6-92.7-160.3c-4.2-7.5-5.6-17-6.8-25.8c-6.7-46.2,7-86.3,32.9-124.8c24.1-35.9,43.4-75,65.8-112.1
		c5.2-8.6,13.9-15.6,22-22c33.3-26,70.9-33.6,113-31.1c46.4,2.8,93.1,0.2,139.6,1c10.1,0.2,20.5,4.1,30.1,7.9
		c39.1,15.7,64.7,44.3,83.6,82c20.7,41.4,46.3,80.4,69,120.9c4.2,7.5,5.6,17,6.8,25.8c6.3,45.5-6.2,85.3-32.3,123.4
		c-24.4,35.7-43.4,75-65.9,112.1c-5.7,9.5-15.1,17.1-24,24.2c-32.8,26.1-70.3,34.5-111.7,30C376.7,784.8,360.7,786.2,344.8,786.2z
		 M173.9,612.1c2.4,0,3.6,0.4,4.4-0.1c51.7-29.7,103.4-59.3,154.8-89.5c3.4-2,6.1-8.1,6.1-12.4c0.4-55.7,0.1-111.4,0.4-167.1
		c0.1-9.7-3.5-13.7-13.2-14.5c-12.1-0.9-24.2-3.2-36.3-4.8c-34.3-4.5-68.5-9.4-102.8-13.2c-4.8-0.5-12.6,2.5-14.8,6.3
		c-31.3,53.1-62.1,106.6-92.5,160.2c-2,3.5-2.1,10.5,0.1,13.4C111.3,531.5,142.9,572.1,173.9,612.1z M513.8,614.1
		c31.6-40.7,61.6-80,92.5-118.7c6.7-8.4,6.3-14.2,1.2-22.9c-29-49.2-58.1-98.3-85.7-148.3c-7.1-12.8-15.2-15.7-27.9-13.9
		c-44.3,6.2-88.6,12.4-133,18.3c-8.4,1.1-11,4.9-11,13.1c0.2,56.2,0,112.5,0.4,168.7c0,4.3,2.6,10.5,6,12.4
		C408.1,553.3,460.2,583.2,513.8,614.1z M344.5,775.8c29.7,0,59.3-0.3,89,0.2c8.6,0.1,13.7-1.9,17.2-10.7
		c17.2-43.5,34.9-86.8,53-130c3.4-8.1,2.9-12.5-5.3-17.2c-48.3-27.4-96.3-55.6-144.7-82.8c-4.6-2.6-13.3-2.8-17.8-0.2
		c-48.9,27.5-97.2,55.9-145.9,83.7c-6.7,3.9-7.9,7.7-5.1,14.7c18.3,44.1,36.6,88.3,54.3,132.7c3.4,8.5,8.6,9.8,16.4,9.7
		C285.1,775.6,314.8,775.8,344.5,775.8z M615.9,507.6c-1.2-0.4-2.5-0.7-3.7-1.1c-6,7.6-12.3,14.9-18.1,22.7
		c-34.8,47.4-77.6,89.3-96,147.8c-9.2,29.2-22.5,57.1-34,85.5c24.4-11.2,47.6-20.1,60.9-46c24.1-46.6,50.7-92.1,79-136.3
		C619.5,556.4,615,532.3,615.9,507.6z M225.4,762.9c-12.8-31.3-25.1-62.9-38.5-94c-8.4-19.5-16.9-39.2-28.1-57.1
		c-11.9-19-27-35.9-40.8-53.6c-13.6-17.4-27.3-34.7-43.4-55c-1.2,30.7-3.1,55.7,12.9,80.4c27.9,43.2,53.7,88,77.2,133.7
		C177.9,743,201.1,751.9,225.4,762.9z M196.2,296.7c99.4,25.8,197.7,25.5,297.1,0.1c-24-14.7-45.7-28.9-76.1-27.2
		c-49.4,2.7-99.1,2.5-148.6,0.1C239.4,268.1,219.2,283.3,196.2,296.7z"/>
	<path class="st0" d="M173.9,612.1c-31-40-62.6-80.6-93.7-121.6c-2.2-2.9-2.1-10-0.1-13.4c30.4-53.6,61.2-107.1,92.5-160.2
		c2.3-3.8,10-6.8,14.8-6.3c34.3,3.8,68.6,8.6,102.8,13.2c12.1,1.6,24.1,3.8,36.3,4.8c9.6,0.7,13.2,4.8,13.2,14.5
		c-0.3,55.7,0,111.4-0.4,167.1c0,4.2-2.7,10.4-6.1,12.4c-51.4,30.2-103.1,59.8-154.8,89.5C177.5,612.5,176.3,612.1,173.9,612.1z"/>
	<path class="st0" d="M513.8,614.1c-53.6-30.9-105.7-60.8-157.5-91.3c-3.3-2-5.9-8.2-6-12.4c-0.4-56.2-0.1-112.5-0.4-168.7
		c0-8.1,2.6-12,11-13.1c44.4-5.8,88.7-12,133-18.3c12.7-1.8,20.9,1.1,27.9,13.9c27.6,50,56.7,99.2,85.7,148.3
		c5.1,8.7,5.5,14.5-1.2,22.9C575.4,534.1,545.4,573.4,513.8,614.1z"/>
	<path class="st0" d="M344.5,775.8c-29.7,0-59.3-0.2-89,0.1c-7.8,0.1-13-1.2-16.4-9.7c-17.7-44.4-36-88.6-54.3-132.7
		c-2.9-6.9-1.7-10.8,5.1-14.7c48.7-27.8,97.1-56.2,145.9-83.7c4.6-2.6,13.2-2.4,17.8,0.2c48.4,27.2,96.4,55.4,144.7,82.8
		c8.1,4.6,8.7,9.1,5.3,17.2c-18,43.2-35.8,86.4-53,130c-3.5,8.8-8.6,10.9-17.2,10.7C403.8,775.6,374.1,775.8,344.5,775.8z"/>
	<path class="st0" d="M615.9,507.6c-0.9,24.6,3.6,48.7-11.8,72.8c-28.3,44.2-55,89.7-79,136.3c-13.4,25.9-36.5,34.8-60.9,46
		c11.5-28.5,24.8-56.4,34-85.5c18.4-58.5,61.2-100.4,96-147.8c5.7-7.8,12-15.2,18.1-22.7C613.4,506.9,614.6,507.3,615.9,507.6z"/>
	<path class="st0" d="M225.4,762.9c-24.3-11-47.5-19.8-60.8-45.6c-23.6-45.7-49.4-90.5-77.2-133.7c-16-24.8-14-49.7-12.9-80.4
		c16.1,20.4,29.8,37.6,43.4,55c13.8,17.7,28.9,34.7,40.8,53.6c11.2,17.9,19.7,37.7,28.1,57.1C200.3,700,212.6,731.5,225.4,762.9z"/>
	<path class="st0" d="M196.2,296.7c22.9-13.4,43.1-28.6,72.5-27.1c49.4,2.4,99.2,2.7,148.6-0.1c30.4-1.7,52.1,12.6,76.1,27.2
		C393.9,322.2,295.6,322.5,196.2,296.7z"/>
</g>
<rect x="721.6" y="312.7" class="st1" width="2626.4" height="423.8"/>
<text transform="matrix(1 0 0 1 721.5743 730.8721)" class="st2 st3 st4">Cardinality</text>
</svg>
