<?xml version="1.0" encoding="utf-8"?>
<!-- Generator: Adobe Illustrator 24.1.0, SVG Export Plug-In . SVG Version: 6.00 Build 0)  -->
<svg version="1.1" id="Layer_1" xmlns="http://www.w3.org/2000/svg" xmlns:xlink="http://www.w3.org/1999/xlink" x="0px" y="0px"
	 viewBox="0 0 5476.8 1494.4" style="enable-background:new 0 0 5476.8 1494.4;" xml:space="preserve">
<style type="text/css">
	.st0{fill:none;}
	.st1{font-family:'Staatliches-Regular';}
	.st2{font-size:900px;}
	.st3{fill:#FFFFFF;}
	.st4{fill:#020202;}
</style>
<rect x="1303.1" y="430.7" class="st0" width="4020.8" height="646.4"/>
<text transform="matrix(1 0 0 1 1303.1448 1057.9833)" class="st1 st2">Cardinality</text>
<g>
	<path class="st3" d="M1163.6,1235c-325.2,0-650.4,0-975.7,0c0-325.2,0-650.4,0-975.7c325.2,0,650.4,0,975.7,0
		C1163.6,584.6,1163.6,909.8,1163.6,1235z M678,333.6c-25.1,0-50.4,2.3-75.2-0.5c-66.3-7.5-126,7.4-178.6,48.5
		c-12.9,10.1-26.6,21.1-34.8,34.7c-35.4,58.6-65.9,120.5-104.1,177.2c-41.5,61.6-62.5,126-52,199.7c1.8,12.3,3.7,25.6,9.7,36.2
		c36.7,65.4,77.7,128.6,111.1,195.5c29.5,59,70,102.9,130.8,127.6c15.1,6.1,31.6,12.2,47.5,12.5c73.6,1.3,147.4-2.9,220.7,1.6
		c66.6,4.1,126-8.3,178.6-49.2c12.9-10,26.4-21.2,34.7-34.9c35.5-58.6,65.9-120.6,104.5-177c42.5-62.3,61.9-127.8,52.1-202.1
		c-1.5-11.5-4-23.9-9.6-33.8c-47.5-83.4-95.2-166.6-144.6-248.9c-9.8-16.3-25.9-29.5-41.1-41.6c-50.4-40.2-108.5-52.6-172.1-46.1
		C729.9,335.8,703.8,333.6,678,333.6z"/>
	<path class="st4" d="M678,333.6c25.9,0,52,2.2,77.6-0.4c63.6-6.5,121.6,5.9,172.1,46.1c15.2,12.1,31.4,25.3,41.1,41.6
		c49.4,82.3,97.1,165.5,144.6,248.9c5.6,9.9,8.1,22.3,9.6,33.8c9.9,74.3-9.5,139.8-52.1,202.1c-38.5,56.4-68.9,118.4-104.5,177
		c-8.3,13.6-21.8,24.8-34.7,34.9c-52.6,40.9-112,53.3-178.6,49.2c-73.3-4.5-147.1-0.3-220.7-1.6c-15.9-0.3-32.4-6.4-47.5-12.5
		c-60.8-24.7-101.3-68.6-130.8-127.6C320.7,958,279.7,894.8,243,829.4c-5.9-10.6-7.9-23.9-9.7-36.2c-10.6-73.7,10.5-138.1,52-199.7
		c38.2-56.7,68.6-118.6,104.1-177.2c8.2-13.6,21.9-24.6,34.8-34.7c52.6-41.1,112.3-56,178.6-48.5C627.6,335.9,652.9,333.6,678,333.6
		z M408,890.5c3.8,0,5.7,0.6,6.9-0.1c81.7-46.9,163.5-93.8,244.7-141.5c5.4-3.1,9.6-12.9,9.7-19.6c0.6-88.1,0.2-176.1,0.7-264.2
		c0.1-15.3-5.6-21.7-20.8-22.9c-19.2-1.5-38.2-5-57.3-7.6c-54.2-7.2-108.3-14.8-162.5-20.8c-7.5-0.8-19.8,3.9-23.4,10
		c-49.5,83.9-98.1,168.4-146.2,253.2c-3.1,5.5-3.4,16.6,0.1,21.2C309,763.1,359,827.2,408,890.5z M945.2,893.6
		c49.9-64.3,97.4-126.5,146.2-187.6c10.6-13.3,10-22.5,1.9-36.1c-45.9-77.7-91.8-155.4-135.4-234.4c-11.2-20.3-24.1-24.8-44.1-22
		c-70,9.9-140,19.6-210.1,28.9c-13.3,1.7-17.4,7.8-17.4,20.7c0.4,88.9,0,177.8,0.6,266.7c0,6.7,4.1,16.5,9.4,19.7
		C778.2,797.5,860.5,844.8,945.2,893.6z M677.7,1149.2c46.9,0,93.8-0.4,140.6,0.3c13.8,0.2,21.6-3.3,27.1-17.2
		c27.2-68.8,55.2-137.2,83.7-205.4c5.3-12.8,4.2-19.8-8.6-27.1c-76.4-43.4-152.2-87.8-228.7-130.9c-6.9-3.9-19.4-4.7-26-1
		c-78,43.9-155.4,88.6-232.4,134.1c-5.3,3.1-9.7,16.4-7.4,22.1c27.3,69.5,56.4,138.4,84,207.8c5.5,13.7,13,17.8,27,17.5
		C584,1148.7,630.9,1149.2,677.7,1149.2z M869.1,1131.7c40.4-20.3,76.1-40.1,98-82.9c37.5-73,79.7-143.9,123.3-213.5
		c22.9-36.5,14-73.2,16-112.5C990.9,839.6,913.9,974.8,869.1,1131.7z M491.5,1133.6c-24-58.6-45.2-112.3-67.9-165.2
		c-11.7-27.1-23.2-55.1-40-79.1c-30.4-43.7-64.5-84.8-97.3-126.8c-10.4-13.4-21.5-26.3-34.7-42.4c-5.4,50.1-2.9,91.6,23.4,132.1
		c39.9,61.4,77,125.1,109.9,190.5C407.4,1087.4,442.8,1111.8,491.5,1133.6z M438.9,396.2c83.4,10.9,161.2,29,239.1,28.9
		c77.9,0,155.7-18.2,238.7-29.1c-43.4-32-82.5-49.8-132.1-47c-70.8,4.1-142.2,4.1-213,0C521.8,346.2,482.8,364.1,438.9,396.2z"/>
	<path class="st3" d="M408,890.5c-49-63.2-99-127.4-148.1-192.2c-3.5-4.6-3.2-15.7-0.1-21.2c48.1-84.8,96.7-169.3,146.2-253.2
		c3.6-6,15.9-10.8,23.4-10c54.3,6,108.4,13.7,162.5,20.8c19.1,2.5,38.1,6.1,57.3,7.6c15.2,1.2,20.9,7.6,20.8,22.9
		c-0.5,88.1,0,176.1-0.7,264.2c0,6.7-4.3,16.4-9.7,19.6c-81.3,47.7-163,94.5-244.7,141.5C413.7,891,411.8,890.5,408,890.5z"/>
	<path class="st3" d="M945.2,893.6c-84.7-48.9-167.1-96.1-248.9-144.3c-5.3-3.1-9.4-12.9-9.4-19.7c-0.6-88.9-0.2-177.8-0.6-266.7
		c-0.1-12.9,4.1-18.9,17.4-20.7c70.1-9.2,140.1-19,210.1-28.9c20.1-2.8,33,1.7,44.1,22c43.6,79,89.5,156.7,135.4,234.4
		c8.1,13.7,8.7,22.9-1.9,36.1C1042.6,767.1,995.1,829.3,945.2,893.6z"/>
	<path class="st3" d="M677.7,1149.2c-46.9,0-93.8-0.5-140.6,0.3c-14,0.2-21.6-3.8-27-17.5c-27.6-69.4-56.7-138.3-84-207.8
		c-2.3-5.8,2.2-19,7.4-22.1c77-45.6,154.5-90.3,232.4-134.1c6.6-3.7,19.1-2.9,26,1c76.5,43.1,152.3,87.6,228.7,130.9
		c12.8,7.2,13.9,14.2,8.6,27.1c-28.5,68.2-56.5,136.6-83.7,205.4c-5.5,13.8-13.3,17.4-27.1,17.2
		C771.5,1148.7,724.6,1149.2,677.7,1149.2z"/>
	<path class="st3" d="M869.1,1131.7c44.8-156.9,121.8-292.1,237.4-408.9c-2,39.3,6.9,76-16,112.5c-43.6,69.6-85.8,140.5-123.3,213.5
		C945.2,1091.5,909.5,1111.4,869.1,1131.7z"/>
	<path class="st3" d="M491.5,1133.6c-48.7-21.8-84.1-46.2-106.6-90.9c-32.9-65.4-70-129.1-109.9-190.5
		c-26.3-40.5-28.9-82-23.4-132.1c13.2,16.1,24.3,29,34.7,42.4c32.8,42,66.9,83.1,97.3,126.8c16.7,24,28.3,52,40,79.1
		C446.4,1021.4,467.5,1075,491.5,1133.6z"/>
	<path class="st3" d="M438.9,396.2c43.9-32.1,83-50,132.6-47.1c70.8,4.1,142.2,4.1,213,0c49.7-2.9,88.7,15,132.1,47
		c-83,10.9-160.8,29-238.7,29.1C600.1,425.1,522.2,407,438.9,396.2z"/>
</g>
</svg>
