<?xml version="1.0" encoding="utf-8"?>
<!-- Generator: Adobe Illustrator 24.1.0, SVG Export Plug-In . SVG Version: 6.00 Build 0)  -->
<svg version="1.1" id="Layer_1" xmlns="http://www.w3.org/2000/svg" xmlns:xlink="http://www.w3.org/1999/xlink" x="0px" y="0px"
	 viewBox="0 0 111.2 30.6" style="enable-background:new 0 0 111.2 30.6;" xml:space="preserve">
<style type="text/css">
	.st0{fill:none;}
	.st1{fill:#F2F2F2;}
	.st2{font-family:'Staatliches-Regular';}
	.st3{font-size:19.5791px;}
	.st4{fill:#FFFFFF;}
</style>
<rect x="24.4" y="8.7" class="st0" width="86.6" height="13.9"/>
<text transform="matrix(1 0 0 1 24.4149 22.3711)" class="st1 st2 st3">Cardinality</text>
<g>
	<path class="st4" d="M21.4,25.9c-7.1,0-14.2,0-21.2,0c0-7.1,0-14.2,0-21.2c7.1,0,14.2,0,21.2,0C21.4,11.7,21.4,18.8,21.4,25.9z
		 M10.8,6.3c-0.5,0-1.1,0.1-1.6,0C7.7,6.1,6.4,6.4,5.3,7.3C5,7.5,4.7,7.8,4.5,8.1c-0.8,1.3-1.4,2.6-2.3,3.9
		c-0.9,1.3-1.4,2.7-1.1,4.3c0,0.3,0.1,0.6,0.2,0.8c0.8,1.4,1.7,2.8,2.4,4.3c0.6,1.3,1.5,2.2,2.8,2.8c0.3,0.1,0.7,0.3,1,0.3
		c1.6,0,3.2-0.1,4.8,0c1.4,0.1,2.7-0.2,3.9-1.1c0.3-0.2,0.6-0.5,0.8-0.8c0.8-1.3,1.4-2.6,2.3-3.9c0.9-1.4,1.3-2.8,1.1-4.4
		c0-0.3-0.1-0.5-0.2-0.7c-1-1.8-2.1-3.6-3.1-5.4c-0.2-0.4-0.6-0.6-0.9-0.9c-1.1-0.9-2.4-1.1-3.7-1C11.9,6.3,11.4,6.3,10.8,6.3z"/>
	<path class="st4" d="M10.8,6.3c0.6,0,1.1,0,1.7,0c1.4-0.1,2.6,0.1,3.7,1c0.3,0.3,0.7,0.6,0.9,0.9c1.1,1.8,2.1,3.6,3.1,5.4
		c0.1,0.2,0.2,0.5,0.2,0.7c0.2,1.6-0.2,3-1.1,4.4c-0.8,1.2-1.5,2.6-2.3,3.9c-0.2,0.3-0.5,0.5-0.8,0.8c-1.1,0.9-2.4,1.2-3.9,1.1
		c-1.6-0.1-3.2,0-4.8,0c-0.3,0-0.7-0.1-1-0.3c-1.3-0.5-2.2-1.5-2.8-2.8c-0.7-1.5-1.6-2.8-2.4-4.3c-0.1-0.2-0.2-0.5-0.2-0.8
		c-0.2-1.6,0.2-3,1.1-4.3c0.8-1.2,1.5-2.6,2.3-3.9C4.7,7.8,5,7.5,5.3,7.3c1.1-0.9,2.4-1.2,3.9-1.1C9.7,6.3,10.3,6.3,10.8,6.3z
		 M4.9,18.4c0.1,0,0.1,0,0.1,0c1.8-1,3.6-2,5.3-3.1c0.1-0.1,0.2-0.3,0.2-0.4c0-1.9,0-3.8,0-5.7c0-0.3-0.1-0.5-0.5-0.5
		c-0.4,0-0.8-0.1-1.2-0.2C7.8,8.3,6.6,8.2,5.4,8C5.2,8,5,8.1,4.9,8.2c-1.1,1.8-2.1,3.7-3.2,5.5c-0.1,0.1-0.1,0.4,0,0.5
		C2.8,15.6,3.9,17,4.9,18.4z M16.6,18.5c1.1-1.4,2.1-2.8,3.2-4.1c0.2-0.3,0.2-0.5,0-0.8c-1-1.7-2-3.4-2.9-5.1
		c-0.2-0.4-0.5-0.5-1-0.5c-1.5,0.2-3,0.4-4.6,0.6c-0.3,0-0.4,0.2-0.4,0.4c0,1.9,0,3.9,0,5.8c0,0.1,0.1,0.4,0.2,0.4
		C13,16.4,14.8,17.4,16.6,18.5z M10.8,24c1,0,2,0,3.1,0c0.3,0,0.5-0.1,0.6-0.4c0.6-1.5,1.2-3,1.8-4.5c0.1-0.3,0.1-0.4-0.2-0.6
		c-1.7-0.9-3.3-1.9-5-2.8c-0.1-0.1-0.4-0.1-0.6,0c-1.7,1-3.4,1.9-5.1,2.9c-0.1,0.1-0.2,0.4-0.2,0.5c0.6,1.5,1.2,3,1.8,4.5
		C7.3,24,7.4,24,7.8,24C8.8,24,9.8,24,10.8,24z M15,23.6c0.9-0.4,1.7-0.9,2.1-1.8c0.8-1.6,1.7-3.1,2.7-4.6c0.5-0.8,0.3-1.6,0.3-2.4
		C17.6,17.3,15.9,20.2,15,23.6z M6.8,23.7c-0.5-1.3-1-2.4-1.5-3.6c-0.3-0.6-0.5-1.2-0.9-1.7c-0.7-1-1.4-1.8-2.1-2.8
		c-0.2-0.3-0.5-0.6-0.8-0.9c-0.1,1.1-0.1,2,0.5,2.9c0.9,1.3,1.7,2.7,2.4,4.1C4.9,22.7,5.7,23.2,6.8,23.7z M5.6,7.6
		c1.8,0.2,3.5,0.6,5.2,0.6c1.7,0,3.4-0.4,5.2-0.6c-0.9-0.7-1.8-1.1-2.9-1c-1.5,0.1-3.1,0.1-4.6,0C7.4,6.6,6.6,6.9,5.6,7.6z"/>
	<path class="st4" d="M4.9,18.4c-1.1-1.4-2.2-2.8-3.2-4.2c-0.1-0.1-0.1-0.3,0-0.5c1-1.8,2.1-3.7,3.2-5.5C5,8.1,5.2,8,5.4,8
		c1.2,0.1,2.4,0.3,3.5,0.5c0.4,0.1,0.8,0.1,1.2,0.2c0.3,0,0.5,0.2,0.5,0.5c0,1.9,0,3.8,0,5.7c0,0.1-0.1,0.4-0.2,0.4
		c-1.8,1-3.5,2.1-5.3,3.1C5.1,18.4,5,18.4,4.9,18.4z"/>
	<path class="st4" d="M16.6,18.5c-1.8-1.1-3.6-2.1-5.4-3.1C11.1,15.3,11,15,11,14.9c0-1.9,0-3.9,0-5.8c0-0.3,0.1-0.4,0.4-0.4
		c1.5-0.2,3-0.4,4.6-0.6c0.4-0.1,0.7,0,1,0.5c0.9,1.7,1.9,3.4,2.9,5.1c0.2,0.3,0.2,0.5,0,0.8C18.7,15.7,17.7,17.1,16.6,18.5z"/>
	<path class="st4" d="M10.8,24c-1,0-2,0-3.1,0c-0.3,0-0.5-0.1-0.6-0.4c-0.6-1.5-1.2-3-1.8-4.5c0-0.1,0-0.4,0.2-0.5
		c1.7-1,3.4-2,5.1-2.9c0.1-0.1,0.4-0.1,0.6,0c1.7,0.9,3.3,1.9,5,2.8c0.3,0.2,0.3,0.3,0.2,0.6c-0.6,1.5-1.2,3-1.8,4.5
		C14.3,24,14.2,24,13.9,24C12.8,24,11.8,24,10.8,24z"/>
	<path class="st4" d="M15,23.6c1-3.4,2.6-6.4,5.2-8.9c0,0.9,0.1,1.7-0.3,2.4c-0.9,1.5-1.9,3.1-2.7,4.6C16.6,22.8,15.9,23.2,15,23.6z
		"/>
	<path class="st4" d="M6.8,23.7c-1.1-0.5-1.8-1-2.3-2c-0.7-1.4-1.5-2.8-2.4-4.1c-0.6-0.9-0.6-1.8-0.5-2.9c0.3,0.4,0.5,0.6,0.8,0.9
		c0.7,0.9,1.5,1.8,2.1,2.8c0.4,0.5,0.6,1.1,0.9,1.7C5.8,21.2,6.2,22.4,6.8,23.7z"/>
	<path class="st4" d="M5.6,7.6c1-0.7,1.8-1.1,2.9-1c1.5,0.1,3.1,0.1,4.6,0c1.1-0.1,1.9,0.3,2.9,1c-1.8,0.2-3.5,0.6-5.2,0.6
		C9.1,8.3,7.4,7.9,5.6,7.6z"/>
</g>
</svg>
