<?xml version="1.0" encoding="utf-8"?>
<!-- Generator: Adobe Illustrator 24.1.0, SVG Export Plug-In . SVG Version: 6.00 Build 0)  -->
<svg version="1.1" id="Layer_1" xmlns="http://www.w3.org/2000/svg" xmlns:xlink="http://www.w3.org/1999/xlink" x="0px" y="0px"
	 viewBox="0 0 24 24" style="enable-background:new 0 0 24 24;" xml:space="preserve">
<style type="text/css">
	.st0{fill:none;}
	.st1{fill:#D3E0FE;}
</style>
<path class="st0" d="M0,0h24v24H0V0z"/>
<path class="st1" d="M9.5,0.5l-6.9,4C1.3,5.2,0.9,6.7,1.6,7.9l8.5,14.7c0.7,1.2,2.2,1.6,3.4,0.9l6.9-4c1.2-0.7,1.6-2.2,0.9-3.4
	L12.9,1.4C12.2,0.2,10.7-0.2,9.5,0.5z M16.5,20.7c-0.7,0.4-1.6,0.2-2-0.5s-0.2-1.6,0.5-2c0.7-0.4,1.6-0.2,2,0.5
	C17.5,19.3,17.2,20.2,16.5,20.7z M18.4,14.9l-7.8,4.5l-7-12.1l7.8-4.5L18.4,14.9z"/>
</svg>
